<svg width="135" height="27" xmlns="http://www.w3.org/2000/svg">
 <!-- Created with Method Draw - http://github.com/duopixel/Method-Draw/ -->

 <g>
  <title>background</title>
  <rect fill="#fff" id="canvas_background" height="29" width="137" y="-1" x="-1"/>
  <g display="none" overflow="visible" y="0" x="0" height="100%" width="100%" id="canvasGrid">
   <rect fill="url(#gridpattern)" stroke-width="0" y="0" x="0" height="100%" width="100%"/>
  </g>
 </g>
 <g>
  <title>Layer 1</title>
  <!-- Created with Method Draw - http://github.com/duopixel/Method-Draw/ -->
  <g stroke="null" id="svg_121">
   <g stroke="null" transform="matrix(0.291679101022184,0,0,0.2941409014071491,-1121.0137976357194,-1061.3662895949333) " id="svg_118">
    <title stroke="null" transform="translate(13.713701248168945,-33.997310638427734) translate(41.1411018371582,-574.5545654296875) translate(6.856850624084473,4.547473508864641e-13) translate(1.2960045337677002,4.547473508864641e-13) translate(-819.3936157226562,50.995967864990234) translate(-3.4284253120422363,4.547473508864641e-13) translate(-23.998977661132812,6.79946231842041) translate(-613.6881103515625,227.78199768066406) translate(7.343753337860107,-1.0327694416046143) translate(-4.196430683135986,193.76416015625) translate(5197.52490234375,0) translate(0,3584.5) ">background</title>
    <rect stroke="null" x="3802.170754" y="3453.256943" width="582" height="402" id="svg_116" fill="#fff"/>
    <g stroke="null" id="svg_115" display="none">
     <rect stroke="null" id="svg_119" width="580" height="400" x="3803.170754" y="3454.256943" stroke-width="0" fill="url(#gridpattern)"/>
    </g>
   </g>
   <g stroke="null" transform="matrix(0.291679101022184,0,0,0.2941409014071491,-1121.0137976357194,-1061.3662895949333) " id="svg_120">
    <title stroke="null" transform="translate(13.713701248168945,-33.997310638427734) translate(41.1411018371582,-574.5545654296875) translate(6.856850624084473,4.547473508864641e-13) translate(1.2960045337677002,4.547473508864641e-13) translate(-819.3936157226562,50.995967864990234) translate(-3.4284253120422363,4.547473508864641e-13) translate(-23.998977661132812,6.79946231842041) translate(-613.6881103515625,227.78199768066406) translate(7.343753337860107,-1.0327694416046143) translate(-4.196430683135986,193.76416015625) translate(5197.52490234375,0) translate(0,3584.5) ">Layer 1</title>
    <path stroke="#000000" d="m4092.277854,3637.438363c-9.29091,0 -16.81858,7.52767 -16.81858,16.81857s7.52767,16.81858 16.81858,16.81858s16.81858,-7.52767 16.81858,-16.81858s-7.52767,-16.81857 -16.81858,-16.81857z" id="svg_114" fill="#5cadd3"/>
    <g stroke="null" id="svg_96">
     <g stroke="null" id="svg_112" transform="matrix(0.2453773104145437,0,0,0.04694448153385012,-513.0629168361338,89.63881523883902) ">
      <path stroke="#000000" d="m18672.032033,75932.628648c0,22.201 -17.992,40.199 -40.205,40.199l-378.927,0c-11.094,0 -21.14,-4.498 -28.416,-11.774c-7.27,-7.265 -11.765,-17.313 -11.765,-28.413c-0.006,-22.204 17.992,-40.199 40.202,-40.193l378.936,0c22.195,0.005 40.17,17.989 40.175,40.181z" id="svg_113" fill="#999999"/>
     </g>
     <g stroke="null" id="svg_111" transform="matrix(0.2453773104145437,0,0,0.04694448153385012,-513.0629168361338,89.63881523883902) "/>
     <g stroke="null" id="svg_110" transform="matrix(0.2453773104145437,0,0,0.04694448153385012,-513.0629168361338,89.63881523883902) "/>
     <g stroke="null" id="svg_109" transform="matrix(0.2453773104145437,0,0,0.04694448153385012,-513.0629168361338,89.63881523883902) "/>
     <g stroke="null" id="svg_108" transform="matrix(0.2453773104145437,0,0,0.04694448153385012,-513.0629168361338,89.63881523883902) "/>
     <g stroke="null" id="svg_107" transform="matrix(0.2453773104145437,0,0,0.04694448153385012,-513.0629168361338,89.63881523883902) "/>
     <g stroke="null" id="svg_106" transform="matrix(0.2453773104145437,0,0,0.04694448153385012,-513.0629168361338,89.63881523883902) "/>
     <g stroke="null" id="svg_105" transform="matrix(0.2453773104145437,0,0,0.04694448153385012,-513.0629168361338,89.63881523883902) "/>
     <g stroke="null" id="svg_104" transform="matrix(0.2453773104145437,0,0,0.04694448153385012,-513.0629168361338,89.63881523883902) "/>
     <g stroke="null" id="svg_103" transform="matrix(0.2453773104145437,0,0,0.04694448153385012,-513.0629168361338,89.63881523883902) "/>
     <g stroke="null" id="svg_102" transform="matrix(0.2453773104145437,0,0,0.04694448153385012,-513.0629168361338,89.63881523883902) "/>
     <g stroke="null" id="svg_101" transform="matrix(0.2453773104145437,0,0,0.04694448153385012,-513.0629168361338,89.63881523883902) "/>
     <g stroke="null" id="svg_100" transform="matrix(0.2453773104145437,0,0,0.04694448153385012,-513.0629168361338,89.63881523883902) "/>
     <g stroke="null" id="svg_99" transform="matrix(0.2453773104145437,0,0,0.04694448153385012,-513.0629168361338,89.63881523883902) "/>
     <g stroke="null" id="svg_98" transform="matrix(0.2453773104145437,0,0,0.04694448153385012,-513.0629168361338,89.63881523883902) "/>
     <g stroke="null" id="svg_97" transform="matrix(0.2453773104145437,0,0,0.04694448153385012,-513.0629168361338,89.63881523883902) "/>
    </g>
    <g stroke="null" id="svg_78">
     <g stroke="null" id="svg_94" transform="matrix(0.2453773104145437,0,0,0.04694448153385012,-513.0629168361338,89.63881523883902) ">
      <path stroke="#000000" d="m18672.032033,75932.628638c0,22.201 -17.992,40.199 -40.205,40.199l-378.927,0c-11.094,0 -21.14,-4.498 -28.416,-11.774c-7.27,-7.265 -11.765,-17.313 -11.765,-28.413c-0.006,-22.204 17.992,-40.199 40.202,-40.193l378.936,0c22.195,0.005 40.17,17.989 40.175,40.181z" id="svg_95" fill="#999999"/>
     </g>
     <g stroke="null" id="svg_93" transform="matrix(0.2453773104145437,0,0,0.04694448153385012,-513.0629168361338,89.63881523883902) "/>
     <g stroke="null" id="svg_92" transform="matrix(0.2453773104145437,0,0,0.04694448153385012,-513.0629168361338,89.63881523883902) "/>
     <g stroke="null" id="svg_91" transform="matrix(0.2453773104145437,0,0,0.04694448153385012,-513.0629168361338,89.63881523883902) "/>
     <g stroke="null" id="svg_90" transform="matrix(0.2453773104145437,0,0,0.04694448153385012,-513.0629168361338,89.63881523883902) "/>
     <g stroke="null" id="svg_89" transform="matrix(0.2453773104145437,0,0,0.04694448153385012,-513.0629168361338,89.63881523883902) "/>
     <g stroke="null" id="svg_88" transform="matrix(0.2453773104145437,0,0,0.04694448153385012,-513.0629168361338,89.63881523883902) "/>
     <g stroke="null" id="svg_87" transform="matrix(0.2453773104145437,0,0,0.04694448153385012,-513.0629168361338,89.63881523883902) "/>
     <g stroke="null" id="svg_86" transform="matrix(0.2453773104145437,0,0,0.04694448153385012,-513.0629168361338,89.63881523883902) "/>
     <g stroke="null" id="svg_85" transform="matrix(0.2453773104145437,0,0,0.04694448153385012,-513.0629168361338,89.63881523883902) "/>
     <g stroke="null" id="svg_84" transform="matrix(0.2453773104145437,0,0,0.04694448153385012,-513.0629168361338,89.63881523883902) "/>
     <g stroke="null" id="svg_83" transform="matrix(0.2453773104145437,0,0,0.04694448153385012,-513.0629168361338,89.63881523883902) "/>
     <g stroke="null" id="svg_82" transform="matrix(0.2453773104145437,0,0,0.04694448153385012,-513.0629168361338,89.63881523883902) "/>
     <g stroke="null" id="svg_81" transform="matrix(0.2453773104145437,0,0,0.04694448153385012,-513.0629168361338,89.63881523883902) "/>
     <g stroke="null" id="svg_80" transform="matrix(0.2453773104145437,0,0,0.04694448153385012,-513.0629168361338,89.63881523883902) "/>
     <g stroke="null" id="svg_79" transform="matrix(0.2453773104145437,0,0,0.04694448153385012,-513.0629168361338,89.63881523883902) "/>
    </g>
    <g stroke="null" id="svg_60">
     <g stroke="null" id="svg_76" transform="matrix(0.2453773104145437,0,0,0.04694448153385012,-513.0629168361338,89.63881523883902) ">
      <path stroke="#000000" d="m19332.239803,75932.628638c0,22.201 -17.992,40.199 -40.205,40.199l-378.927,0c-11.094,0 -21.14,-4.498 -28.416,-11.774c-7.27,-7.265 -11.765,-17.313 -11.765,-28.413c-0.006,-22.204 17.992,-40.199 40.202,-40.193l378.936,0c22.195,0.005 40.17,17.989 40.175,40.181z" id="svg_77" fill="#999999"/>
     </g>
     <g stroke="null" id="svg_75" transform="matrix(0.2453773104145437,0,0,0.04694448153385012,-513.0629168361338,89.63881523883902) "/>
     <g stroke="null" id="svg_74" transform="matrix(0.2453773104145437,0,0,0.04694448153385012,-513.0629168361338,89.63881523883902) "/>
     <g stroke="null" id="svg_73" transform="matrix(0.2453773104145437,0,0,0.04694448153385012,-513.0629168361338,89.63881523883902) "/>
     <g stroke="null" id="svg_72" transform="matrix(0.2453773104145437,0,0,0.04694448153385012,-513.0629168361338,89.63881523883902) "/>
     <g stroke="null" id="svg_71" transform="matrix(0.2453773104145437,0,0,0.04694448153385012,-513.0629168361338,89.63881523883902) "/>
     <g stroke="null" id="svg_70" transform="matrix(0.2453773104145437,0,0,0.04694448153385012,-513.0629168361338,89.63881523883902) "/>
     <g stroke="null" id="svg_69" transform="matrix(0.2453773104145437,0,0,0.04694448153385012,-513.0629168361338,89.63881523883902) "/>
     <g stroke="null" id="svg_68" transform="matrix(0.2453773104145437,0,0,0.04694448153385012,-513.0629168361338,89.63881523883902) "/>
     <g stroke="null" id="svg_67" transform="matrix(0.2453773104145437,0,0,0.04694448153385012,-513.0629168361338,89.63881523883902) "/>
     <g stroke="null" id="svg_66" transform="matrix(0.2453773104145437,0,0,0.04694448153385012,-513.0629168361338,89.63881523883902) "/>
     <g stroke="null" id="svg_65" transform="matrix(0.2453773104145437,0,0,0.04694448153385012,-513.0629168361338,89.63881523883902) "/>
     <g stroke="null" id="svg_64" transform="matrix(0.2453773104145437,0,0,0.04694448153385012,-513.0629168361338,89.63881523883902) "/>
     <g stroke="null" id="svg_63" transform="matrix(0.2453773104145437,0,0,0.04694448153385012,-513.0629168361338,89.63881523883902) "/>
     <g stroke="null" id="svg_62" transform="matrix(0.2453773104145437,0,0,0.04694448153385012,-513.0629168361338,89.63881523883902) "/>
     <g stroke="null" id="svg_61" transform="matrix(0.2453773104145437,0,0,0.04694448153385012,-513.0629168361338,89.63881523883902) "/>
    </g>
   </g>
  </g>
 </g>
</svg>